<mxfile host="app.diagrams.net" modified="2020-11-02T14:42:49.888Z" agent="5.0 (Macintosh; Intel Mac OS X 10_15_7) AppleWebKit/537.36 (KHTML, like Gecko) Chrome/86.0.4240.111 Safari/537.36" etag="VN2Y5v_BhetLc7yXF0de" version="13.8.8" type="github">
  <diagram id="piDafpqhtRUU5qUU-vj8" name="Page-1">
    <mxGraphModel dx="1298" dy="736" grid="1" gridSize="10" guides="1" tooltips="1" connect="1" arrows="1" fold="1" page="1" pageScale="1" pageWidth="827" pageHeight="1169" math="0" shadow="0">
      <root>
        <mxCell id="0" />
        <mxCell id="1" parent="0" />
        <mxCell id="8962rQQDY3VNNf6We3Pp-1" value="" style="strokeWidth=1;shadow=0;dashed=0;align=left;html=1;shape=mxgraph.mockup.containers.browserWindow;rSize=0;strokeColor2=#008cff;strokeColor3=#c4c4c4;mainText=,;recursiveResize=0;strokeColor=#FFFFFF;fontColor=#FFFFFF;" parent="1" vertex="1">
          <mxGeometry x="13" y="70" width="567" height="700" as="geometry" />
        </mxCell>
        <mxCell id="8962rQQDY3VNNf6We3Pp-2" value="Page 1" style="strokeWidth=1;shadow=0;dashed=0;align=center;html=1;shape=mxgraph.mockup.containers.anchor;fontSize=17;fontColor=#666666;align=left;" parent="8962rQQDY3VNNf6We3Pp-1" vertex="1">
          <mxGeometry x="60" y="12" width="110" height="26" as="geometry" />
        </mxCell>
        <mxCell id="8962rQQDY3VNNf6We3Pp-3" value="https://opendesk.com" style="strokeWidth=1;shadow=0;dashed=0;align=center;html=1;shape=mxgraph.mockup.containers.anchor;rSize=0;fontSize=17;fontColor=#666666;align=left;" parent="8962rQQDY3VNNf6We3Pp-1" vertex="1">
          <mxGeometry x="130" y="60" width="250" height="26" as="geometry" />
        </mxCell>
        <mxCell id="8962rQQDY3VNNf6We3Pp-4" value="" style="verticalLabelPosition=bottom;shadow=0;dashed=0;align=center;html=1;verticalAlign=top;strokeWidth=1;shape=mxgraph.mockup.containers.videoPlayer;strokeColor=#666666;strokeColor2=#008cff;strokeColor3=#c4c4c4;textColor=#666666;fillColor2=#008cff;barHeight=30;barPos=20;" parent="8962rQQDY3VNNf6We3Pp-1" vertex="1">
          <mxGeometry y="110" width="560" height="590" as="geometry" />
        </mxCell>
        <mxCell id="8962rQQDY3VNNf6We3Pp-16" value="Open Desk" style="text;html=1;strokeColor=none;fillColor=none;align=center;verticalAlign=middle;whiteSpace=wrap;rounded=0;fontSize=13;fontColor=#0066CC;" parent="8962rQQDY3VNNf6We3Pp-1" vertex="1">
          <mxGeometry x="60" y="133.5" width="100" height="20" as="geometry" />
        </mxCell>
        <mxCell id="seymav8gBYocV3_De4xC-2" value="d" style="text;html=1;align=center;verticalAlign=middle;resizable=0;points=[];autosize=1;fontSize=37;fontFamily=Tahoma;fillColor=#008CFF;fontColor=#FFFFFF;" parent="8962rQQDY3VNNf6We3Pp-1" vertex="1">
          <mxGeometry x="10" y="115" width="40" height="50" as="geometry" />
        </mxCell>
        <mxCell id="x9dJS3snekuaHJ1mESHE-1" value="&lt;b&gt;&lt;font style=&quot;font-size: 15px&quot;&gt;Organisation Onboarding&lt;/font&gt;&lt;/b&gt;" style="text;html=1;strokeColor=none;fillColor=none;align=center;verticalAlign=middle;whiteSpace=wrap;rounded=0;fontSize=13;fontColor=#0066CC;" parent="8962rQQDY3VNNf6We3Pp-1" vertex="1">
          <mxGeometry x="191" y="133.5" width="185" height="20" as="geometry" />
        </mxCell>
        <mxCell id="x9dJS3snekuaHJ1mESHE-2" value="" style="verticalLabelPosition=bottom;shadow=0;dashed=0;align=center;html=1;verticalAlign=top;strokeWidth=1;shape=mxgraph.mockup.containers.userMale;strokeColor=#666666;strokeColor2=#008cff;" parent="8962rQQDY3VNNf6We3Pp-1" vertex="1">
          <mxGeometry x="27" y="220" width="100" height="100" as="geometry" />
        </mxCell>
        <mxCell id="x9dJS3snekuaHJ1mESHE-4" value="R Corp Limited" style="strokeWidth=1;shadow=0;dashed=0;align=center;html=1;shape=mxgraph.mockup.text.textBox;fontColor=#666666;align=left;fontSize=17;spacingLeft=4;spacingTop=-3;strokeColor=#666666;mainText=" parent="8962rQQDY3VNNf6We3Pp-1" vertex="1">
          <mxGeometry x="230" y="235" width="150" height="30" as="geometry" />
        </mxCell>
        <mxCell id="x9dJS3snekuaHJ1mESHE-11" value="&lt;font style=&quot;font-size: 20px&quot; color=&quot;#333333&quot;&gt;Name:&lt;/font&gt;" style="text;html=1;strokeColor=none;fillColor=none;align=left;verticalAlign=middle;whiteSpace=wrap;rounded=0;fontSize=13;fontColor=#0066CC;" parent="8962rQQDY3VNNf6We3Pp-1" vertex="1">
          <mxGeometry x="137" y="240" width="100" height="20" as="geometry" />
        </mxCell>
        <mxCell id="x9dJS3snekuaHJ1mESHE-12" value="&lt;font style=&quot;font-size: 20px&quot; color=&quot;#333333&quot;&gt;Location:&lt;/font&gt;" style="text;html=1;strokeColor=none;fillColor=none;align=left;verticalAlign=middle;whiteSpace=wrap;rounded=0;fontSize=13;fontColor=#0066CC;" parent="8962rQQDY3VNNf6We3Pp-1" vertex="1">
          <mxGeometry x="137" y="285" width="100" height="20" as="geometry" />
        </mxCell>
        <mxCell id="x9dJS3snekuaHJ1mESHE-13" value="DLF Cyber City, Gurugram, Haryana&amp;nbsp;" style="strokeWidth=1;shadow=0;dashed=0;align=center;html=1;shape=mxgraph.mockup.text.textBox;fontColor=#666666;align=left;fontSize=17;spacingLeft=4;spacingTop=-3;strokeColor=#666666;mainText=" parent="8962rQQDY3VNNf6We3Pp-1" vertex="1">
          <mxGeometry x="230" y="280" width="280" height="25" as="geometry" />
        </mxCell>
        <mxCell id="x9dJS3snekuaHJ1mESHE-14" value="" style="strokeWidth=1;shadow=0;dashed=0;align=center;html=1;shape=mxgraph.mockup.containers.marginRect2;rectMarginTop=32;strokeColor=#666666;gradientColor=none;" parent="8962rQQDY3VNNf6We3Pp-1" vertex="1">
          <mxGeometry x="100" y="380" width="430" height="260" as="geometry" />
        </mxCell>
        <mxCell id="x9dJS3snekuaHJ1mESHE-15" value="Site 1" style="strokeColor=inherit;fillColor=inherit;gradientColor=inherit;strokeWidth=1;shadow=0;dashed=0;align=center;html=1;shape=mxgraph.mockup.containers.rrect;rSize=0;fontSize=17;fontColor=#666666;gradientColor=none;" parent="x9dJS3snekuaHJ1mESHE-14" vertex="1">
          <mxGeometry width="60" height="25" relative="1" as="geometry">
            <mxPoint x="10" as="offset" />
          </mxGeometry>
        </mxCell>
        <mxCell id="x9dJS3snekuaHJ1mESHE-16" value="Site 2" style="strokeWidth=1;shadow=0;dashed=0;align=center;html=1;shape=mxgraph.mockup.containers.rrect;rSize=0;fontSize=17;fontColor=#ffffff;strokeColor=#008cff;fillColor=#008cff;" parent="x9dJS3snekuaHJ1mESHE-14" vertex="1">
          <mxGeometry width="60" height="25" relative="1" as="geometry">
            <mxPoint x="75" as="offset" />
          </mxGeometry>
        </mxCell>
        <mxCell id="x9dJS3snekuaHJ1mESHE-17" value="Site 3" style="strokeColor=inherit;fillColor=inherit;gradientColor=inherit;strokeWidth=1;shadow=0;dashed=0;align=center;html=1;shape=mxgraph.mockup.containers.rrect;rSize=0;fontSize=17;fontColor=#666666;gradientColor=none;" parent="x9dJS3snekuaHJ1mESHE-14" vertex="1">
          <mxGeometry width="60" height="25" relative="1" as="geometry">
            <mxPoint x="140" as="offset" />
          </mxGeometry>
        </mxCell>
        <mxCell id="x9dJS3snekuaHJ1mESHE-18" value="" style="strokeWidth=1;shadow=0;dashed=0;align=center;html=1;shape=mxgraph.mockup.containers.topButton;rSize=5;strokeColor=#008cff;fillColor=#008cff;gradientColor=none;resizeWidth=1;movable=0;deletable=1;" parent="x9dJS3snekuaHJ1mESHE-14" vertex="1">
          <mxGeometry width="403.7804878048781" height="7" relative="1" as="geometry">
            <mxPoint y="25" as="offset" />
          </mxGeometry>
        </mxCell>
        <mxCell id="x9dJS3snekuaHJ1mESHE-37" value="" style="strokeWidth=1;shadow=0;dashed=0;align=left;html=1;shape=mxgraph.mockup.containers.marginRect2;rectMarginLeft=67;strokeColor=#666666;gradientColor=none;" parent="x9dJS3snekuaHJ1mESHE-14" vertex="1">
          <mxGeometry x="-55.29" y="33.91" width="485.29" height="226.09" as="geometry" />
        </mxCell>
        <mxCell id="x9dJS3snekuaHJ1mESHE-38" value="Floor 1" style="strokeColor=inherit;fillColor=inherit;gradientColor=inherit;strokeWidth=1;shadow=0;dashed=0;align=center;html=1;shape=mxgraph.mockup.containers.rrect;rSize=0;fontSize=17;fontColor=#666666;" parent="x9dJS3snekuaHJ1mESHE-37" vertex="1">
          <mxGeometry width="60" height="25" relative="1" as="geometry">
            <mxPoint y="10" as="offset" />
          </mxGeometry>
        </mxCell>
        <mxCell id="x9dJS3snekuaHJ1mESHE-39" value="Floor 2" style="strokeWidth=1;shadow=0;dashed=0;align=center;html=1;shape=mxgraph.mockup.containers.rrect;rSize=0;fontSize=17;fontColor=#ffffff;strokeColor=#008cff;fillColor=#008cff;" parent="x9dJS3snekuaHJ1mESHE-37" vertex="1">
          <mxGeometry width="60" height="25" relative="1" as="geometry">
            <mxPoint y="40" as="offset" />
          </mxGeometry>
        </mxCell>
        <mxCell id="x9dJS3snekuaHJ1mESHE-40" value="Floor 3" style="strokeColor=inherit;fillColor=inherit;gradientColor=inherit;strokeWidth=1;shadow=0;dashed=0;align=center;html=1;shape=mxgraph.mockup.containers.rrect;rSize=0;fontSize=17;fontColor=#666666;" parent="x9dJS3snekuaHJ1mESHE-37" vertex="1">
          <mxGeometry width="60" height="25" relative="1" as="geometry">
            <mxPoint y="70" as="offset" />
          </mxGeometry>
        </mxCell>
        <mxCell id="x9dJS3snekuaHJ1mESHE-41" value="" style="strokeWidth=1;shadow=0;dashed=0;align=center;html=1;shape=mxgraph.mockup.containers.leftButton;rSize=5;strokeColor=#008cff;fillColor=#008cff;resizeHeight=1;movable=0;deletable=0;" parent="x9dJS3snekuaHJ1mESHE-37" vertex="1">
          <mxGeometry width="7" height="226.09" relative="1" as="geometry">
            <mxPoint x="60" as="offset" />
          </mxGeometry>
        </mxCell>
        <mxCell id="x9dJS3snekuaHJ1mESHE-52" value="Save" style="strokeWidth=1;shadow=0;dashed=0;align=center;html=1;shape=mxgraph.mockup.buttons.button;strokeColor=#666666;fontColor=#ffffff;mainText=;buttonStyle=round;fontSize=17;fontStyle=1;fillColor=#008cff;whiteSpace=wrap;" parent="x9dJS3snekuaHJ1mESHE-37" vertex="1">
          <mxGeometry x="386.8285365853659" y="184.24304347826092" width="75.12" height="27.61" as="geometry" />
        </mxCell>
        <mxCell id="FSbduVsCitjszFsPWgqq-3" value="Choose file" style="html=1;shadow=0;dashed=0;shape=mxgraph.bootstrap.rrect;rSize=5;strokeColor=#CED4DA;html=1;whiteSpace=wrap;fillColor=#FFFFFF;fontColor=#7D868C;align=left;spacingLeft=0;spacing=15;fontSize=14;" vertex="1" parent="x9dJS3snekuaHJ1mESHE-37">
          <mxGeometry x="181.9923170731707" y="185.10956521739138" width="178.41463414634146" height="22.608695652173914" as="geometry" />
        </mxCell>
        <mxCell id="FSbduVsCitjszFsPWgqq-4" value="Browse" style="html=1;shadow=0;dashed=0;shape=mxgraph.bootstrap.rightButton;strokeColor=inherit;gradientColor=inherit;fontColor=inherit;fillColor=#E9ECEF;rSize=5;perimeter=none;whiteSpace=wrap;resizeHeight=1;fontSize=14;" vertex="1" parent="FSbduVsCitjszFsPWgqq-3">
          <mxGeometry x="1" width="70" height="22.608695652173914" relative="1" as="geometry">
            <mxPoint x="-70" as="offset" />
          </mxGeometry>
        </mxCell>
        <mxCell id="FSbduVsCitjszFsPWgqq-2" value="&lt;font color=&quot;#333333&quot; style=&quot;font-size: 15px&quot;&gt;Desk Plan:&lt;/font&gt;" style="text;html=1;strokeColor=none;fillColor=none;align=left;verticalAlign=middle;whiteSpace=wrap;rounded=0;fontSize=13;fontColor=#0066CC;" vertex="1" parent="x9dJS3snekuaHJ1mESHE-37">
          <mxGeometry x="84.5642722265932" y="185.10956521739138" width="116.62077104642013" height="22.608695652173914" as="geometry" />
        </mxCell>
        <mxCell id="x9dJS3snekuaHJ1mESHE-50" value="&lt;font color=&quot;#333333&quot; style=&quot;font-size: 15px&quot;&gt;Open Desk:&lt;/font&gt;" style="text;html=1;strokeColor=none;fillColor=none;align=left;verticalAlign=middle;whiteSpace=wrap;rounded=0;fontSize=13;fontColor=#0066CC;" parent="x9dJS3snekuaHJ1mESHE-37" vertex="1">
          <mxGeometry x="84.55963808025177" y="127.71956521739139" width="116.62077104642013" height="22.608695652173914" as="geometry" />
        </mxCell>
        <mxCell id="x9dJS3snekuaHJ1mESHE-51" value="200" style="strokeWidth=1;shadow=0;dashed=0;align=left;html=1;shape=mxgraph.mockup.text.textBox;align=left;fontSize=17;spacingLeft=4;spacingTop=-3;strokeColor=#82b366;mainText=;fillColor=#d5e8d4;" parent="x9dJS3snekuaHJ1mESHE-37" vertex="1">
          <mxGeometry x="186.48768292682925" y="119.24130434782614" width="46.95121951219512" height="39.56521739130435" as="geometry" />
        </mxCell>
        <mxCell id="x9dJS3snekuaHJ1mESHE-49" value="&lt;font color=&quot;#333333&quot; style=&quot;font-size: 15px&quot;&gt;Reserved:&lt;/font&gt;" style="text;html=1;strokeColor=none;fillColor=none;align=left;verticalAlign=middle;whiteSpace=wrap;rounded=0;fontSize=13;fontColor=#0066CC;" parent="x9dJS3snekuaHJ1mESHE-37" vertex="1">
          <mxGeometry x="243.5593548387097" y="128.37565217391307" width="124.19354838709677" height="22.608695652173914" as="geometry" />
        </mxCell>
        <mxCell id="x9dJS3snekuaHJ1mESHE-48" value="50" style="strokeWidth=1;shadow=0;dashed=0;align=center;html=1;shape=mxgraph.mockup.forms.spinner;strokeColor=#999999;spinLayout=right;spinStyle=normal;adjStyle=triangle;fillColor=#aaddff;fontSize=17;fontColor=#666666;mainText=;html=1;overflow=fill;" parent="x9dJS3snekuaHJ1mESHE-37" vertex="1">
          <mxGeometry x="324.55853658536586" y="127.07304347826084" width="72.47" height="23.26" as="geometry" />
        </mxCell>
        <mxCell id="x9dJS3snekuaHJ1mESHE-46" value="250" style="strokeWidth=1;shadow=0;dashed=0;align=center;html=1;shape=mxgraph.mockup.forms.spinner;strokeColor=#999999;spinLayout=right;spinStyle=normal;adjStyle=triangle;fillColor=#aaddff;fontSize=17;fontColor=#666666;mainText=;html=1;overflow=fill;" parent="x9dJS3snekuaHJ1mESHE-37" vertex="1">
          <mxGeometry x="181.9885365853659" y="81.40304347826088" width="94.5" height="25.44" as="geometry" />
        </mxCell>
        <mxCell id="x9dJS3snekuaHJ1mESHE-47" value="&lt;font style=&quot;font-size: 15px&quot; color=&quot;#333333&quot;&gt;Total Desk:&lt;/font&gt;" style="text;html=1;strokeColor=none;fillColor=none;align=center;verticalAlign=middle;whiteSpace=wrap;rounded=0;fontSize=13;fontColor=#0066CC;" parent="x9dJS3snekuaHJ1mESHE-37" vertex="1">
          <mxGeometry x="62.28935483870968" y="84.23565217391308" width="124.19354838709677" height="22.608695652173914" as="geometry" />
        </mxCell>
        <mxCell id="FSbduVsCitjszFsPWgqq-7" value="&lt;font style=&quot;font-size: 15px&quot; color=&quot;#333333&quot;&gt;Floor:&lt;/font&gt;" style="text;html=1;strokeColor=none;fillColor=none;align=left;verticalAlign=middle;whiteSpace=wrap;rounded=0;fontSize=13;fontColor=#0066CC;" vertex="1" parent="x9dJS3snekuaHJ1mESHE-37">
          <mxGeometry x="87.55853658536586" y="48.153043478260884" width="73.66" height="20" as="geometry" />
        </mxCell>
        <mxCell id="x9dJS3snekuaHJ1mESHE-43" value="&lt;font style=&quot;font-size: 15px&quot; color=&quot;#333333&quot;&gt;Site Name:&lt;/font&gt;" style="text;html=1;strokeColor=none;fillColor=none;align=left;verticalAlign=middle;whiteSpace=wrap;rounded=0;fontSize=13;fontColor=#0066CC;" parent="x9dJS3snekuaHJ1mESHE-37" vertex="1">
          <mxGeometry x="87.55853658536586" y="18.153043478260884" width="83.66" height="20" as="geometry" />
        </mxCell>
        <mxCell id="x9dJS3snekuaHJ1mESHE-42" value="R Corp Limited, Noida" style="strokeWidth=1;shadow=0;dashed=0;align=center;html=1;shape=mxgraph.mockup.text.textBox;fontColor=#666666;align=left;fontSize=17;spacingLeft=4;spacingTop=-3;strokeColor=#666666;mainText=" parent="x9dJS3snekuaHJ1mESHE-37" vertex="1">
          <mxGeometry x="181.9885365853659" y="14.243043478260915" width="179.47" height="23.91" as="geometry" />
        </mxCell>
        <mxCell id="FSbduVsCitjszFsPWgqq-6" value="2nd Floor" style="strokeWidth=1;shadow=0;dashed=0;align=center;html=1;shape=mxgraph.mockup.text.textBox;fontColor=#666666;align=left;fontSize=17;spacingLeft=4;spacingTop=-3;strokeColor=#666666;mainText=" vertex="1" parent="x9dJS3snekuaHJ1mESHE-37">
          <mxGeometry x="181.9885365853659" y="44.2430434782608" width="179.47" height="23.91" as="geometry" />
        </mxCell>
        <mxCell id="x9dJS3snekuaHJ1mESHE-29" value="" style="verticalLabelPosition=bottom;shadow=0;dashed=0;align=center;html=1;verticalAlign=top;strokeWidth=1;shape=mxgraph.mockup.forms.colorPicker;chosenColor=#aaddff;" parent="8962rQQDY3VNNf6We3Pp-1" vertex="1">
          <mxGeometry x="297" y="376" width="30" height="30" as="geometry" />
        </mxCell>
        <mxCell id="x9dJS3snekuaHJ1mESHE-30" value="&lt;font color=&quot;#333333&quot;&gt;&lt;span style=&quot;font-size: 20px&quot;&gt;&amp;nbsp; +&lt;/span&gt;&lt;/font&gt;" style="text;html=1;strokeColor=none;fillColor=none;align=center;verticalAlign=middle;whiteSpace=wrap;rounded=0;fontSize=13;fontColor=#0066CC;" parent="8962rQQDY3VNNf6We3Pp-1" vertex="1">
          <mxGeometry x="291.45" y="380" width="27.1" height="22" as="geometry" />
        </mxCell>
        <mxCell id="FSbduVsCitjszFsPWgqq-22" value="" style="html=1;shadow=0;dashed=0;shape=mxgraph.bootstrap.rrect;rSize=5;strokeColor=#CED4DA;html=1;whiteSpace=wrap;fillColor=#FFFFFF;fontColor=#7D868C;align=left;spacingLeft=0;spacing=15;fontSize=14;" vertex="1" parent="8962rQQDY3VNNf6We3Pp-1">
          <mxGeometry x="24" y="320" width="103" height="22.61" as="geometry" />
        </mxCell>
        <mxCell id="FSbduVsCitjszFsPWgqq-23" value="Browse" style="html=1;shadow=0;dashed=0;shape=mxgraph.bootstrap.rightButton;strokeColor=inherit;gradientColor=inherit;fontColor=inherit;fillColor=#E9ECEF;rSize=5;perimeter=none;whiteSpace=wrap;resizeHeight=1;fontSize=14;" vertex="1" parent="FSbduVsCitjszFsPWgqq-22">
          <mxGeometry x="1" width="70" height="22.61" relative="1" as="geometry">
            <mxPoint x="-70" as="offset" />
          </mxGeometry>
        </mxCell>
      </root>
    </mxGraphModel>
  </diagram>
</mxfile>
